<mxfile host="app.diagrams.net" modified="2023-12-11T12:38:07.784Z" agent="Mozilla/5.0 (Windows NT 10.0; Win64; x64) AppleWebKit/537.36 (KHTML, like Gecko) Chrome/120.0.0.0 Safari/537.36" version="22.1.7" etag="niy3qPKrcZ85P5dcY6Um" type="github">
  <diagram name="페이지-1" id="KQaqnFVOboqBg-96rZ0O">
    <mxGraphModel>
      <root>
        <mxCell id="0" />
        <mxCell id="1" parent="0" />
      </root>
    </mxGraphModel>
  </diagram>
</mxfile>
